Coordinates

Units are S.I. units (second, meters, Newtons, ...)
If the header above contains a line with 'inDegrees', this indicates whether rotational values are in degrees (yes) or radians (no).

inDegrees=no
nColumns=21
nRows=22
DataType=double
version=3
OpenSimVersion=4.6-2026-03-31-d6972f9e6
endheader
time	/jointset/ground_pelvis/pelvis_tilt/value	/jointset/ground_pelvis/pelvis_list/value	/jointset/ground_pelvis/pelvis_rotation/value	/jointset/ground_pelvis/pelvis_tx/value	/jointset/ground_pelvis/pelvis_ty/value	/jointset/ground_pelvis/pelvis_tz/value	/jointset/hip_r/hip_flexion_r/value	/jointset/hip_r/hip_adduction_r/value	/jointset/hip_r/hip_rotation_r/value	/jointset/walker_knee_r/knee_angle_r/value	/jointset/patellofemoral_r/knee_angle_r_beta/value	/jointset/ankle_r/ankle_angle_r/value	/jointset/subtalar_r/subtalar_angle_r/value	/jointset/hip_l/hip_flexion_l/value	/jointset/hip_l/hip_adduction_l/value	/jointset/hip_l/hip_rotation_l/value	/jointset/walker_knee_l/knee_angle_l/value	/jointset/patellofemoral_l/knee_angle_l_beta/value	/jointset/ankle_l/ankle_angle_l/value	/jointset/subtalar_l/subtalar_angle_l/value
147.496	0.02068503915908524	0.1641607364233205	0.14257081358169	1.082510220718733	1.034945612412478	-0.3721803304289487	-0.02655837420343795	-0.2959217097871346	-0.1405005770247733	1.227137168880733	1.227137168323734	-0.2822301772310765	-0.4724020091462338	0.247222568976972	0.2208071434436439	0.002955936250885382	0.6006472277070939	0.6006472277710779	0.1956538324266914	-0.4003114723345037
147.5	0.02322792597997545	0.1677025357678656	0.1467753434964996	1.081005330947079	1.034184614524907	-0.372251027627677	-0.01325751313457221	-0.3029516376027672	-0.1402911899331308	1.243447648403183	1.243447647850633	-0.2698963640574872	-0.4696571620435661	0.2397131813542424	0.2241044999677773	0.008518543103032555	0.611677116865442	0.6116771170174827	0.2049827184891047	-0.4010677349436979
147.504	0.02566290560710202	0.1702548760374804	0.1500920283740477	1.079609389606582	1.033631692915734	-0.3722388796766708	0.0004431604772621716	-0.3085523239731364	-0.1387528994480913	1.258035483208219	1.258035482652961	-0.2576172620479945	-0.4667529923279453	0.2311852454414437	0.2260812241202277	0.01382877178753662	0.620366530551431	0.6203665307960421	0.2138277760489272	-0.4010118580112663
147.508	0.02802791741096783	0.1717704878230942	0.1524397713285182	1.078336095862061	1.033288228858553	-0.3721426565397401	0.01448811708737489	-0.3126356421712341	-0.1358749803822943	1.270850739293814	1.270850738731603	-0.2454057181887605	-0.463754807433289	0.221587226393838	0.2266914871037748	0.01878752495172461	0.6266609615319519	0.6266609618681974	0.2221867628285764	-0.4002082988620281
147.512	0.03035205963669429	0.172220540156118	0.1537566429795736	1.077196503883562	1.033152514798848	-0.3719627112717623	0.02882358352687969	-0.3151397235669778	-0.1316777108276203	1.281861283932227	1.281861283362526	-0.2332685040015006	-0.4607162573198312	0.2108890247030502	0.2259192172891302	0.0233064269135302	0.6305335067118626	0.6305335071322173	0.2300495655454197	-0.3987416364407412
147.516	0.03265307280450559	0.1715944095742627	0.1540009935573022	1.076198931084951	1.033219881275637	-0.3717008509212165	0.04339969902749617	-0.3160292418097712	-0.1262105656784159	1.291052016760698	1.291052016186712	-0.2212093607776238	-0.4576823416956786	0.1990833138888011	0.2237779077844838	0.02731017886987428	0.6319836190870739	0.6319836195773445	0.2373934872557293	-0.3967158586567945
147.52	0.03493547928047858	0.1698987760668071	0.1531518341093376	1.07534895526006	1.033482925129691	-0.3713601504884373	0.05817233197434993	-0.315294623786429	-0.119549540672782	1.29842349098091	1.298423490409021	-0.2092323140249147	-0.4546929239746724	0.1861861567489796	0.2203091878516852	0.03073815757426039	0.6310356083270995	0.6310356088674065	0.2441794863352883	-0.3942526410484672
147.524	0.03718943233344395	0.1671561625038984	0.1512084410509752	1.07464949592425	1.033931820580201	-0.3709447181801799	0.07310452515967517	-0.3129503393221761	-0.1117936902309156	1.303990034232726	1.303990033671657	-0.1973448407659835	-0.4517862108424212	0.1722369369102888	0.2155802664548543	0.03354507018459253	0.6277369831627388	0.6277369837292819	0.2503496972209003	-0.3914884194873915
147.528	0.03939027149898961	0.1634030634974602	0.148189174541347	1.074100970726494	1.034554688649849	-0.3704594204778251	0.0881675790572847	-0.3090324741657351	-0.1030609635500567	1.30777751639685	1.307777515856778	-0.1855603768703615	-0.4490015154246104	0.157297697871798	0.2096804134699774	0.03570049286384976	0.6221567433549166	0.6221567439221638	0.2558265128060377	-0.3885700292501981
147.532	0.0414988255690175	0.1586877953819343	0.144129597792477	1.073701512118408	1.035338007280525	-0.369909581937289	0.103341676300659	-0.3035957681728034	-0.0934835179358669	1.309820880663862	1.309820880155629	-0.1738998658212643	-0.4463809313404437	0.141451908512283	0.2027166825061055	0.03718732915650402	0.6143837207564152	0.6143837212994221	0.2605133261304477	-0.3856489352782278
147.536	0.04346254522738452	0.153068185291419	0.1390800894681198	1.073447227034743	1.036267054687845	-0.3693006843157861	0.118615838646645	-0.2967102855629957	-0.08320281472313547	1.310161493077573	1.31016149261221	-0.162392457494158	-0.4439701148054666	0.1248025722043792	0.1948091376283627	0.03799950596275849	0.6045249992637314	0.6045249997603326	0.2642967650215128	-0.3828745124316322
147.54	0.04521751936427618	0.1466092153731307	0.133103151758547	1.073332485526945	1.037326382770303	-0.3686380896598317	0.1339870207481033	-0.2884578948723737	-0.0723648117190534	1.308844339073882	1.308844338662611	-0.1510756708248946	-0.441818608810977	0.1074695665239628	0.1860858743471646	0.03813929567752308	0.5927043420742489	0.5927043425068782	0.2670500974351182	-0.3803870449167404
147.544	0.04669135546367693	0.1393807319366228	0.1262705489507505	1.073350228598247	1.038500313967135	-0.3679268017088496	0.1494582621255792	-0.2789287401970411	-0.06111545100667393	1.305915122446268	1.305915122100881	-0.1399951956017188	-0.4399798839691797	0.08958616036109432	0.1766780918245572	0.03761450385317854	0.5790605108971402	0.5790605112540848	0.2686375147732473	-0.3783109514703183
147.548	0.04780676778501343	0.1314553253601377	0.1186604098886648	1.07349228506354	1.039773442921093	-0.3671712760251565	0.165036001885727	-0.2682179062640956	-0.0495965746796685	1.301417375915653	1.301417375648872	-0.1292043126131498	-0.4385109951267428	0.07129482312634378	0.1667154607241051	0.03643570309136451	0.5637454146739987	0.5637454149499217	0.2689190712670427	-0.3767485378713415
147.552	0.04848554791645242	0.1229064876070676	0.1103545085460372	1.073749683548468	1.041131109913466	-0.3663752950101371	0.1807268549075832	-0.256422516732728	-0.03794243299625281	1.2953897341362	1.295389733961708	-0.1187628840613255	-0.4374717649074933	0.05274264988818442	0.1563220628512353	0.03461380634230889	0.5469221112181635	0.5469221114137219	0.2677560493800786	-0.3757745617002096
147.556	0.04865252776813633	0.113807136691838	0.1014359429832919	1.074112945008394	1.042559809572114	-0.3655419223870697	0.1965342399636996	-0.2436394801519618	-0.0262769297464633	1.287863527793092	1.287863527725281	-0.1087359191701194	-0.4369234944933058	0.03407681071044555	0.1456131545777231	0.03215828582908895	0.5287627240981583	0.5287627242186633	0.2650164790779495	-0.3754319229294361
147.56	0.04823925152883608	0.1042285522696599	0.09198730431062198	1.074572345718334	1.044047510834069	-0.3646735363252472	0.2124551777679606	-0.2299639845429027	-0.01471161770413036	1.27886083128957	1.278860831343353	-0.09919174404838435	-0.4369271860256211	0.01544031837601135	0.1346928881436153	0.0290761485008803	0.5094463101483994	0.5094463102017004	0.2605805194663904	-0.3757287472291153
147.564	0.04718727237131758	0.09423971903365498	0.0820892891394618	1.075118148218437	1.045583885797529	-0.3637719253904841	0.2284773831170518	-0.2154887189042544	-0.003344346202420365	1.268393041368325	1.268393041559172	-0.09019981485065902	-0.437541208334054	-0.003031827907011465	0.1236529942391579	0.02537158538854261	0.4891566422559774	0.4891566422499932	0.2543454201246453	-0.3766370439948085
147.568	0.04545113573487324	0.08390704584603174	0.0718196678391316	1.07574080497829	1.047160462787538	-0.3628384286306976	0.244576599908252	-0.2003037382055661	0.007741531067072293	1.256459999152433	1.256459999496372	-0.08182824317790516	-0.4388183376196122	-0.0212162560270073	0.1125723551800859	0.02104617848879482	0.4680798084981023	0.4680798084386025	0.2462298217032141	-0.378093040242499
147.572	0.04300106232404216	0.07329441469410909	0.06125255239164824	1.07643114167134	1.048770716930459	-0.3618741051072608	0.2607141727649261	-0.1844968752439896	0.01847743306345459	1.243049649955723	1.243049650468879	-0.07414114517138022	-0.4408021801762784	-0.03900465886004411	0.1015173733765351	0.01609959532137188	0.4464015718485824	0.4464015717378205	0.2361772275374005	-0.3799992091337201
147.576	0.03982511292547092	0.06246350423096662	0.05045795919078595	1.077180520324557	1.050410087697711	-0.3608799201480854	0.2768351380068414	-0.1681545975099088	0.02880934968947109	1.228138300055704	1.228138300753115	-0.06719594029084724	-0.4435231208065013	-0.0563067846297741	0.09054302526776313	0.01053072217653929	0.4243046181036815	0.4243046179401867	0.2241585657582808	-0.3822278850119521
147.58	0.03593048893089981	0.05147430525258034	0.0395016697677655	1.077980974557678	1.0520758963672	-0.359856932785412	0.292867301591068	-0.1513631595084756	0.0386972312669909	1.211691599336008	1.211691600229859	-0.06104072456832051	-0.4469940578801312	-0.07305249647447283	0.07969444606800781	0.004339146536632296	0.4019659533907022	0.4019659531701165	0.210173822099576	-0.3846262505724003
